PathFileType	4	(X/Y/Z)	3_coords_data.trc
DataRate	CameraRate	NumFrames	NumMarkers	Units	OrigDataRate	OrigDataStartFrame	OrigNumFrames
30.0	30.0	6	21	m	30.0	42	62
Frame#	Time	THUMB_TIP	THUMB_IP	THUMB_MCP	THUMB_CMC	INDEX_TIP	INDEX_DIP	INDEX_PIP	INDEX_MCP	MIDDLE_TIP	MIDDLE_DIP	MIDDLE_PIP	MIDDLE_MCP	RING_TIP	RING_DIP	RING_PIP	RING_MCP	PINKY_TIP	PINKY_DIP	PINKY_PIP	PINKY_MCP	WRIST
X1	Y1	Z1	X2	Y2	Z2	X3	Y3	Z3	X4	Y4	Z4	X5	Y5	Z5	X6	Y6	Z6	X7	Y7	Z7	X8	Y8	Z8	X9	Y9	Z9	X10	Y10	Z10	X11	Y11	Z11	X12	Y12	Z12	X13	Y13	Z13	X14	Y14	Z14	X15	Y15	Z15	X16	Y16	Z16	X17	Y17	Z17	X18	Y18	Z18	X19	Y19	Z19	X20	Y20	Z20	X21	Y21	Z21
40	1.3666666666666607	0.5193934433346414	-0.051766956037745976	-0.15197667119526603	0.5009334193382025	-0.041131653660520406	-0.1433674983316351	0.4803333193535063	-0.03404134280564999	-0.12113726278178466	0.4701248246642139	-0.03284278165511986	-0.07772942838121677	0.5467853237372147	-0.0552257973917504	-0.16055924754532058	0.5462091923534363	-0.03755882988843054	-0.15661636384613964	0.537971972955176	-0.01610900995052686	-0.14641522301697574	0.5079580824075411	-0.0015868707973214213	-0.11992163997108451	0.5643381114662487	-0.048709240207842674	-0.14775106197256704	0.5671851889542222	-0.031328113518432565	-0.1435331733083004	0.5577405093010448	-0.007555122567994149	-0.12956705439432742	0.5218676943102676	-0.001993538429130609	-0.10352175064290597	0.5698395438968894	-0.04891025437614721	-0.12646609135865333	0.5744361664681445	-0.03259685954342442	-0.12032245969903022	0.5677188951643584	-0.011975130076470858	-0.10808307576751175	0.5327387644375684	-0.010337525355758298	-0.08787343601032194	0.5843888012753238	-0.055177257646725264	-0.10674994828416856	0.5786331821046812	-0.04317026754124112	-0.09599332071929784	0.5663183422374091	-0.030874555506091583	-0.08424716374809549	0.5340336001340611	-0.024480433549882885	-0.06949270399080698	0.4622830810018609	-0.023011742144276925	-0.051989820119430985
41	1.3999999999999937	0.517158430444456	-0.055302892032490364	-0.15302012437558177	0.49955629378597344	-0.0441125629413566	-0.1433795165167262	0.4794130163828356	-0.03612699202122971	-0.12103451634801138	0.46976780902149917	-0.033542718727425674	-0.07755829863648833	0.5459693997403899	-0.061365450433339824	-0.1604032119447827	0.5456569723794744	-0.04364553670261068	-0.15667399667616794	0.5379664089902908	-0.021867925770981705	-0.146744206654846	0.508642344057182	-0.005476744072586026	-0.12057047034668783	0.5646625409868034	-0.055673813634873615	-0.14858292235543458	0.5669483268002101	-0.03830234431189031	-0.14399955713151041	0.5578502430867299	-0.014232293504991667	-0.1303150009861388	0.5225785286519387	-0.005979672042432993	-0.10416259534485506	0.5692618736312997	-0.055991115624335175	-0.12665060677365142	0.5737509656123148	-0.03958507088899213	-0.12067651694105674	0.5676428230951793	-0.018472582051757114	-0.10896612031720182	0.5330510551756512	-0.014343949984546633	-0.08844576887150007	0.5824787403371691	-0.06162867582406478	-0.1070570497579798	0.577147207294297	-0.04914626498103722	-0.09662804333557168	0.565397439369233	-0.03607820373600579	-0.08513975590866396	0.5337956431305653	-0.027742253111662063	-0.06988453212537493	0.462283081001861	-0.023011742144276925	-0.051989820119430985
42	1.4333333333333271	0.5149974802458147	-0.05836369423060697	-0.15390772286563997	0.4982069424465132	-0.04682031516792673	-0.14328565902542983	0.47846619323866935	-0.03800199757964609	-0.12089458724167546	0.4693739773226465	-0.0342061927845759	-0.07738811099164877	0.5457602755048206	-0.06685174215996534	-0.16056436148745457	0.545318748641517	-0.0491488135217604	-0.15676813024323288	0.5377990257788767	-0.0272857108801893	-0.1468955245105394	0.5091201526105295	-0.009234801247028246	-0.12110166886216239	0.5648613412175484	-0.06255857826223382	-0.1492930779737479	0.5664766829677871	-0.04520648203775812	-0.14436403875231013	0.5575587506802615	-0.020942519433903073	-0.1309052069874862	0.5231144190798889	-0.009913024523847652	-0.1046738100816284	0.5688322470781682	-0.06304763778804753	-0.12694146498295017	0.5729157715309589	-0.046538719662440414	-0.12095978876591335	0.5672232386745126	-0.025077737529148908	-0.10968143363084043	0.5331970237108619	-0.01837866978156416	-0.08889538011987519	0.5805176219018156	-0.06790465036072654	-0.1072212043898414	0.5754430501910269	-0.05506679486047217	-0.09710002915636917	0.5642314281242631	-0.04130797873279374	-0.08588367821692428	0.5334214674621455	-0.031018624507733017	-0.07020697688564925	0.4622830810018608	-0.023011742144276925	-0.051989820119430985
43	1.4666666666666603	0.512713148584499	-0.06101917932155332	-0.15478108964380366	0.496760398763772	-0.04920663197700251	-0.14320639749282	0.47744944745883655	-0.03965507706370347	-0.12074142568254065	0.4689197245822315	-0.03484326303412791	-0.07722154202698506	0.5460326694058484	-0.07175171795269553	-0.1609467350354825	0.5451155210410408	-0.05413061111970652	-0.15686562821780192	0.5375143903906253	-0.032322608999278885	-0.1469336752703328	0.5094293847463904	-0.012857724478342825	-0.12151740444729658	0.5652067123190424	-0.06899231754077736	-0.1500597128693651	0.5659663986072675	-0.05171149855426027	-0.14469350639749767	0.5569309594848093	-0.02744795248706222	-0.13131252279727934	0.523462070258326	-0.013738860436039058	-0.10508196485273746	0.5687814603934684	-0.0695422341828894	-0.1271851270160157	0.5721560642746752	-0.05292207806159996	-0.1210710073615675	0.5665601621486017	-0.03127127902641763	-0.11011159316492558	0.5331968700813154	-0.02214540660232997	-0.08917526041699098	0.5786911282238377	-0.07370999951494292	-0.10706043235715507	0.5736929686450577	-0.06060332926223713	-0.09725055999754278	0.5629292027323584	-0.046256417756127016	-0.0863363723222067	0.5329709440892759	-0.03412198355803245	-0.07033194491082206	0.4622830810018609	-0.023011742144276925	-0.051989820119430985
44	1.4999999999999936	0.5104674744395442	-0.06327364012822712	-0.15560569586348227	0.4953682608387887	-0.051274331175659604	-0.14311448562189255	0.4764850434051564	-0.04106975182132738	-0.1205731755544785	0.4684905520003996	-0.03542215899070886	-0.07705211395898415	0.5467651560344976	-0.07626392579021857	-0.1613351346139238	0.5450995235453497	-0.058795999036832164	-0.1568521441667533	0.5372055763135842	-0.03713866518261971	-0.1468194316507242	0.5096188720732949	-0.016458497052702803	-0.12182062189351428	0.5659054321373403	-0.07476086183481134	-0.1507723544043218	0.565624738189107	-0.057635036485965935	-0.14488785637744894	0.556151528305491	-0.03355344634781482	-0.13148096035640566	0.5237170253313418	-0.01745853778287676	-0.1053064526035139	0.569121653314025	-0.07541363910503965	-0.12735720326541622	0.5715549347086698	-0.058701402589909274	-0.12105004127948149	0.5657359807474299	-0.03699768295474584	-0.11031373335751898	0.533083737849188	-0.025726335646934828	-0.08930162738070357	0.5772640358403022	-0.07878086112694688	-0.10658700407987642	0.5721740892032636	-0.06547341747994592	-0.09709993989679055	0.5616653141854882	-0.05071119525983059	-0.08649548508997879	0.5324389925698949	-0.03706944933900361	-0.07035211666658248	0.4622830810018609	-0.023011742144276925	-0.051989820119430985
45	1.5333333333333266	0.5082392810863593	-0.06500259108372297	-0.15644642851384394	0.49397395068348293	-0.052892996806687714	-0.14311008437677375	0.47550033641655565	-0.042150772260552166	-0.12047934891110268	0.4680830871294537	-0.03581796936310236	-0.07695039279594829	0.547819775259551	-0.0799893593758347	-0.16182991186357482	0.545218441280521	-0.06277215606574454	-0.15684985446344735	0.5368332576266992	-0.04139586637327122	-0.1466149745386442	0.5096795436150556	-0.01969766088442032	-0.12200806924891955	0.5669549058215037	-0.07948494055219649	-0.15149127282663533	0.5654872926477846	-0.06263280818072603	-0.14502198027591834	0.555376625515201	-0.03890825339346787	-0.13144518167387365	0.5238190114167118	-0.0209133137342922	-0.10543658578571641	0.5699353544704169	-0.08021650470140504	-0.12747017424832152	0.5711709156604672	-0.06348685843697402	-0.1208677258833093	0.5649013680377934	-0.04184232939577573	-0.11026644698914972	0.5329407433772108	-0.028785465813813832	-0.08922464053848123	0.5763289597471329	-0.08286503084886843	-0.10586652314383471	0.5709973658484897	-0.06944576295966559	-0.09667427881408802	0.5605465323608877	-0.054438599904176155	-0.08636034864948217	0.5319284770870244	-0.03959382825287852	-0.07018867223783765	0.462283081001861	-0.023011742144276925	-0.051989820119430985
